<?xml version="1.0" encoding="UTF-8"?>
<!DOCTYPE svg PUBLIC "-//W3C//DTD SVG 1.1//EN" "http://www.w3.org/Graphics/SVG/1.1/DTD/svg11.dtd">
<svg version="1.1" xmlns="http://www.w3.org/2000/svg" xmlns:xlink="http://www.w3.org/1999/xlink" x="0" y="0" width="514" height="181" viewBox="0, 0, 514, 181">
  <g id="Layer_1">
    <path d="M34.588,35.559 C146.507,47.385 258.425,59.212 370.343,71.038 C389.216,73.032 406.396,82.979 423.996,90.076 C459.974,104.583 486.227,116.99 506.204,141.997 C513.621,151.286 507.418,158.232 494.939,155.004 C466.641,147.677 443.069,129.754 415.343,105.652 C400.948,93.139 380.715,87.094 361.689,85.749 C251.504,77.962 141.316,70.174 31.128,62.385 C32.281,53.444 33.435,44.5 34.588,35.559" fill="#1A1B1A"/>
    <path d="M467.522,110.034 C478.545,116.238 488.286,123.163 496.962,131.728 C493.232,138.685 489.007,145.404 484.277,151.675 C475.066,148.302 466.27,143.784 457.537,138.29 C462.27,129.669 465.563,119.835 467.522,110.034 z M213,54.411 L295.856,63.168 C293.051,68.198 291.816,74.782 291.912,80.818 L227.462,76.262 C226.673,67.828 223.299,59.34 216.71,56.162 C215.479,55.568 214.242,54.985 213,54.411 z M34.588,35.559 L87.08,41.106 C75.919,44.51 64.111,53.341 56.871,64.204 L31.128,62.385 C32.281,53.444 33.435,44.5 34.588,35.559" fill="#0B0B09"/>
    <path d="M476.855,31.189 C364.938,43.016 253.02,54.841 141.102,66.668 C122.229,68.662 105.046,78.61 87.449,85.706 C51.47,100.213 25.217,112.62 5.241,137.627 C-2.179,146.914 4.025,153.863 16.505,150.632 C44.804,143.308 68.375,125.385 96.102,101.282 C110.497,88.769 130.73,82.724 149.755,81.379 C259.94,73.592 370.129,65.803 480.317,58.014 C479.162,49.073 478.007,40.13 476.855,31.189" fill="#1A1B1A"/>
    <path d="M323.437,47.4 L219.93,58.338 C224.338,62.293 226.724,69.083 227.422,75.89 L292.876,71.263 C294.349,64.661 297.565,58.707 302.842,56.162 C309.555,52.926 316.431,49.988 323.437,47.4 z M476.855,31.189 L417.379,37.473 C422.323,38.387 427.247,39.556 432.134,41.002 C441.737,43.841 451.86,50.734 459.171,59.51 L480.317,58.014 C479.162,49.073 478.007,40.13 476.855,31.189 z M31.064,145.799 C26.408,138.924 22.339,131.665 18.828,124.299 L18.49,123.583 C27.928,115.101 38.573,108.269 50.671,102.031 C51.211,106.282 51.995,110.493 52.999,114.598 C54.307,119.936 56.119,125.519 58.48,130.952 C49.474,136.973 40.463,141.984 31.064,145.799" fill="#0B0B09"/>
    <path d="M42.611,75.144 C43.727,53.787 64.218,32.454 85.201,26.253 C131.034,12.705 178.769,22.123 219.625,41.828 C233.555,48.545 237.718,71.257 232.49,85.528 C210.282,146.165 155.516,182.508 88.75,162.975 C56.442,153.528 40.802,109.761 42.611,75.144 z M476.563,75.144 C478.37,109.761 462.731,153.528 430.424,162.975 C363.655,182.508 308.89,146.165 286.682,85.528 C281.456,71.257 285.619,48.545 299.546,41.828 C340.402,22.123 388.14,12.705 433.971,26.253 C454.954,32.454 475.446,53.787 476.563,75.144 z M259.586,42.153 C247.806,42.153 236.828,35.721 226.304,30.559 C164.189,0.091 92.666,-5.877 14.719,14.909 C8.295,16.621 7.245,26.387 6.993,32.878 C5.104,81.51 35.36,169.703 100.899,176.629 C161.248,183.01 216.729,162.739 242.352,92.582 C246.499,81.221 248.211,74.92 259.586,75.193 C270.96,74.92 272.673,81.221 276.822,92.582 C302.441,162.739 357.926,183.01 418.275,176.629 C483.813,169.703 514.069,81.51 512.179,32.878 C511.928,26.387 510.877,16.621 504.452,14.909 C426.506,-5.877 354.985,0.091 292.867,30.559 C282.344,35.721 271.366,42.153 259.586,42.153" fill="#1A1B1A"/>
    <path d="M476.563,75.144 C475.446,53.787 454.954,32.454 433.971,26.253 C388.14,12.705 340.402,22.123 299.546,41.828 C285.619,48.545 281.456,71.257 286.682,85.528 C308.89,146.165 363.655,182.508 430.424,162.975 C462.731,153.528 478.37,109.761 476.563,75.144 z M42.611,75.144 C43.727,53.787 64.218,32.454 85.201,26.253 C131.034,12.705 178.769,22.123 219.625,41.828 C233.555,48.545 237.718,71.257 232.49,85.528 C210.282,146.165 155.516,182.508 88.75,162.975 C56.442,153.528 40.802,109.761 42.611,75.144" fill="#4A5252"/>
    <path d="M80.601,154.142 L89.035,140.22 C92.409,142.408 96.08,144.147 100.071,145.314 C106.984,147.337 113.778,148.733 120.426,149.545 L117.13,163.142 C108.384,162.584 99.361,160.998 90.119,158.294 C86.719,157.302 83.547,155.894 80.601,154.142 z M62.426,135.758 C64.979,139.771 67.898,143.511 71.199,146.796 L82.032,134.672 C78.868,131.666 76.044,128.242 73.544,124.553 L62.426,135.758 z M342.307,148.93 C352.896,155.297 364.549,159.697 377.016,161.849 L380.486,147.534 C369.861,144.97 359.89,140.736 350.737,135.016 L342.307,148.93 z M322.284,133.344 L333.731,121.811 C336.924,124.84 340.262,127.652 343.737,130.238 L332.803,142.473 C329.138,139.68 325.625,136.636 322.284,133.344" fill="#5C6465"/>
    <path d="M285.634,62.088 L370.343,71.038 C389.216,73.032 406.396,82.979 423.996,90.076 C442.452,97.518 458.348,104.407 472.153,112.729 C469.359,122.487 465.286,131.799 459.948,139.781 C445.34,130.907 431.002,119.266 415.343,105.652 C400.948,93.139 380.715,87.094 361.689,85.749 L285.262,80.348 C284.149,74.614 284.268,68.144 285.634,62.088 z M63.088,38.571 L231.831,56.402 C234.259,62.742 235.118,70.063 234.439,76.755 L45.106,63.373 C48.511,54.103 55.059,45.39 63.088,38.571" fill="#303230"/>
    <path d="M270.637,79.192 L269.766,79.252 L249.893,77.848 C252.115,76.002 255.099,75.085 259.586,75.193 C265.057,75.061 268.29,76.451 270.637,79.192 z M285.634,62.088 L370.343,71.038 C372.075,71.221 373.791,71.47 375.495,71.779 L284.904,78.182 C284.199,73.015 284.437,67.393 285.634,62.088 z M204.876,53.553 L231.831,56.402 C234.259,62.742 235.118,70.062 234.439,76.755 L112.156,68.113 C121.215,64.437 130.482,61.414 140.434,60.364 L204.876,53.553" fill="#222321"/>
    <path d="M450.089,34.017 L289.991,50.935 C286.395,56.89 284.574,64.51 284.51,71.855 L472.016,58.601 C467.28,48.972 459.3,40.24 450.089,34.017 z M232.076,57.055 C234.161,62.808 234.978,69.306 234.555,75.385 L149.755,81.379 C130.73,82.724 110.497,88.769 96.102,101.282 C81.767,113.742 68.544,124.551 55.204,133.097 C50.576,124.524 47.201,114.872 45.092,105.01 C57.506,98.136 71.523,92.127 87.449,85.706 C105.046,78.61 122.229,68.662 141.102,66.668 L232.076,57.055" fill="#303230"/>
    <path d="M471.691,75.399 C470.655,55.58 450.914,36.345 432.588,30.928 C407.165,23.413 380.875,23.177 355.383,28.102 C375.072,26.292 394.996,27.783 414.416,33.524 C432.74,38.943 452.483,58.176 453.518,77.994 C454.934,105.093 444.646,143.077 419.54,157.229 C416.799,158.773 413.9,160.01 410.881,160.891 C407.945,161.753 405.03,162.497 402.137,163.134 C410.855,162.57 419.847,160.99 429.053,158.294 C432.075,157.412 434.971,156.178 437.712,154.632 C462.818,140.483 473.105,102.497 471.691,75.399 z M130.026,163.218 C174.879,160.809 210.859,130.407 227.91,83.851 C232.031,72.606 229.448,51.981 217.507,46.221 C180.673,28.455 138.916,19.633 98.646,27.914 C133.141,25.075 168.017,33.713 199.335,48.817 C211.273,54.576 213.856,75.201 209.738,86.447 C195.06,126.528 166.347,154.637 130.026,163.218" fill="#5A6162"/>
    <path d="M451.968,102.075 C450.396,111.193 447.7,120.429 443.793,128.857 C447.824,131.838 451.833,134.63 455.847,137.216 C461.204,129.231 465.15,119.844 467.776,110.177 C462.779,107.353 457.515,104.681 451.968,102.075 z M205.175,53.585 L226.324,55.82 C229.237,61.985 230.206,69.73 229.532,76.408 L211.563,75.139 C211.614,67.473 209.611,59.123 205.175,53.585" fill="#434343"/>
    <path d="M229.532,76.408 C230.206,69.73 229.237,61.985 226.324,55.82 L205.175,53.586 C209.611,59.124 211.614,67.473 211.563,75.139 L229.532,76.408" fill="#3A3B38"/>
    <path d="M466.751,58.973 C461.286,48.937 451.965,40.188 442.038,34.868 L422.788,36.902 C432.694,41.941 442.117,50.444 447.866,60.309 L466.751,58.973 z M229.594,75.737 L211.51,77.014 C211.806,71.231 210.91,64.875 208.648,59.53 L227.087,57.582 C229.315,63.204 230.087,69.843 229.594,75.737" fill="#434343"/>
  </g>
</svg>
